<svg width="46" height="46" viewBox="0 0 46 46" fill="none" xmlns="http://www.w3.org/2000/svg">
<path fill-rule="evenodd" clip-rule="evenodd" d="M30.4294 13.1177L36.45 13.1396C36.4426 14.7437 35.7981 16.2817 34.6555 17.406C34.3845 17.6733 34.0916 17.9114 33.7766 18.1238L30.4294 13.1177ZM4.43213 44.6814C4.17944 44.5642 4 44.3115 4 44.0112V0.732422C4 0.32959 4.32593 0 4.73242 0H11.8369H41.0313C41.4341 0 41.7637 0.325928 41.7637 0.732422V40.1843C41.7637 40.2246 41.76 40.2612 41.7563 40.2979C41.6538 41.7371 41.1851 42.8577 40.3428 43.6597C39.5005 44.458 38.3176 44.9048 36.7832 44.9927C36.7502 44.9963 36.7209 45 36.688 45H5.03638C4.78735 45 4.56396 44.8718 4.43213 44.6814ZM17.0005 12.7808H18.8352C18.9341 12.7808 19.011 12.8613 19.011 12.9565V16.5637C19.011 16.6626 18.9304 16.7395 18.8352 16.7395H17.0005C16.9016 16.7395 16.8247 16.6589 16.8247 16.5637V12.9565C16.8247 12.8613 16.9016 12.7808 17.0005 12.7808ZM10.1707 10.5725H12.0054C12.1042 10.5725 12.1812 10.6531 12.1812 10.7483V16.5674C12.1812 16.6663 12.1006 16.7432 12.0054 16.7432H10.1707C10.0718 16.7432 9.99487 16.6626 9.99487 16.5674V10.7483C9.99121 10.6531 10.0718 10.5725 10.1707 10.5725ZM13.5874 9.33105H15.4221C15.521 9.33105 15.5979 9.41162 15.5979 9.50684V16.5674C15.5979 16.6663 15.5173 16.7432 15.4221 16.7432H13.5874C13.4885 16.7432 13.4116 16.6626 13.4116 16.5674V9.50684C13.408 9.40796 13.4885 9.33105 13.5874 9.33105ZM40.3025 40.166V1.46118H11.8369H5.46118V43.5388H36.6843H36.699C37.8745 43.4729 38.7534 43.158 39.3357 42.605C39.9106 42.0593 40.2292 41.2427 40.3025 40.166ZM10.1597 39.0527C9.7605 39.0527 9.43457 38.7268 9.43457 38.3203C9.43457 37.9175 9.75684 37.5916 10.1597 37.5916H35.9775C36.3767 37.5916 36.7026 37.9175 36.7026 38.3203C36.7026 38.7231 36.3804 39.0527 35.9775 39.0527H10.1597ZM10.2769 33.7207C9.87769 33.7207 9.55176 33.3948 9.55176 32.9883C9.55176 32.5854 9.87402 32.2559 10.2769 32.2559H35.9116C36.3108 32.2559 36.6367 32.5818 36.6367 32.9883C36.6367 33.3911 36.3145 33.7207 35.9116 33.7207H10.2769ZM10.1597 28.3887C9.7605 28.3887 9.43457 28.0627 9.43457 27.6562C9.43457 27.2534 9.75684 26.9275 10.1597 26.9275H21.1936C21.5928 26.9275 21.9187 27.2534 21.9187 27.6562C21.9187 28.0591 21.5964 28.3887 21.1936 28.3887H10.1597ZM24.0098 28.3887C23.6106 28.3887 23.2847 28.0627 23.2847 27.6562C23.2847 27.2534 23.6069 26.9275 24.0098 26.9275H35.9116C36.3108 26.9275 36.6367 27.2534 36.6367 27.6562C36.6367 28.0591 36.3145 28.3887 35.9116 28.3887H24.0098ZM10.1597 23.6316C9.7605 23.6316 9.43457 23.3057 9.43457 22.8992C9.43457 22.4963 9.75684 22.1667 10.1597 22.1667H19.2563C19.6555 22.1667 19.9814 22.4927 19.9814 22.8992C19.9814 23.302 19.6592 23.6316 19.2563 23.6316H10.1597ZM10.1597 5.09399C9.7605 5.09399 9.43457 4.76807 9.43457 4.36157C9.43457 3.95508 9.75684 3.62915 10.1597 3.62915H15.5942C15.9934 3.62915 16.3193 3.95508 16.3193 4.36157C16.3193 4.76807 15.9971 5.09399 15.5942 5.09399H10.1597ZM29.8142 11.9238L29.4919 5.4895C29.4846 5.36133 29.5835 5.25513 29.7117 5.2478C29.7483 5.24414 29.7922 5.24414 29.8398 5.24414C29.8801 5.24414 29.9241 5.24048 29.968 5.24048C31.7368 5.22217 33.3555 5.89233 34.5676 7.00561C35.7798 8.12256 36.5818 9.68262 36.7063 11.4478C36.7136 11.5759 36.6184 11.6858 36.4939 11.6931L30.0559 12.1545C29.9277 12.1619 29.8179 12.0667 29.8105 11.9421C29.8142 11.9348 29.8142 11.9275 29.8142 11.9238ZM29.9644 5.7019L30.2646 11.6785L36.2339 11.2537C36.0654 9.70459 35.3367 8.33862 34.2637 7.34985C33.1357 6.30981 31.6233 5.68726 29.979 5.70557L29.9644 5.7019ZM29.0928 12.8394L32.3191 18.4277C31.3376 18.9954 30.2244 19.292 29.0928 19.292C25.5295 19.292 22.6401 16.4026 22.6401 12.8394C22.6401 9.63867 24.9875 6.91772 28.1553 6.4563L29.0928 12.8394Z" fill="#F9F9F9"/>
</svg>
