<svg width="46" height="46" viewBox="0 0 46 46" fill="none" xmlns="http://www.w3.org/2000/svg">
<path fill-rule="evenodd" clip-rule="evenodd" d="M9.84839 32.7942C12.5364 30.8679 16.843 32.937 18.5422 29.5825C18.9927 28.6926 19.0879 27.4768 18.6851 26.51C18.5203 26.1218 18.2786 25.7739 17.9526 25.5103C17.8098 25.3931 17.6487 25.2905 17.4692 25.2026C15.2573 24.104 12.9539 25.6421 11.7307 27.4951C10.6064 29.2017 10.1157 31.333 9.84839 32.7942ZM8.6582 0H25.5552C26.8369 0 28.0125 0.527344 28.8511 1.3623C29.7007 2.21191 30.217 3.3728 30.217 4.6582V8.48511L28.8804 9.45557V7.22534H5.32202V37.8149H28.8767V25.9534L30.2134 24.6863V40.3418C30.2134 41.6235 29.686 42.7991 28.8474 43.6377C27.9978 44.4873 26.8369 45 25.5515 45H8.6582C7.37646 45 6.20093 44.4727 5.3623 43.6377C4.5127 42.7881 4 41.6272 4 40.3418V4.6582C4 3.37646 4.52734 2.20093 5.3623 1.3623C6.21558 0.512695 7.37646 0 8.6582 0ZM17.0994 39.2725C18.1541 39.2725 19.0183 40.1221 19.0183 41.1914C19.0183 42.2461 18.1687 43.1104 17.0994 43.1104C16.0447 43.1104 15.1804 42.2607 15.1804 41.1914C15.1841 40.1367 16.0337 39.2725 17.0994 39.2725ZM23.4861 18.0798C24.9839 19.2737 26.1448 20.6506 26.9358 22.229L40.8481 9.03809C41.5732 8.34961 41.9871 7.76733 41.3792 6.70898C41.0752 6.3977 40.7566 6.23291 40.4197 6.21094C40.0828 6.18896 39.7312 6.30981 39.3613 6.57715L23.4861 18.0798ZM18.4067 23.9758C19.0549 24.3237 19.9448 25.1807 20.1572 26.1182L26.1887 22.8076C25.3171 21.0754 24.2112 19.5923 22.6877 18.5376C21.1021 20.6689 20.2085 21.9543 18.4067 23.9758Z" fill="#F9F9F9"/>
</svg>
