<svg width="24" height="24" viewBox="0 0 24 24" fill="none" xmlns="http://www.w3.org/2000/svg">
<path d="M21.3193 6.98177H15.6818V5.58168H21.3193V6.98177ZM11.929 12.7242C12.292 13.2878 12.4735 13.9721 12.4735 14.7747C12.4735 15.6055 12.2684 16.3506 11.8524 17.009C11.5958 17.4356 11.2594 17.8088 10.8615 18.1081C10.3953 18.4601 9.85465 18.7007 9.28105 18.8115C8.63044 18.9412 7.96831 19.0043 7.30491 18.9998H1V5H7.76147C9.4648 5.02818 10.6721 5.52193 11.3868 6.4914C11.8152 7.08661 12.0271 7.79905 12.0271 8.62986C12.0271 9.48547 11.8129 10.1697 11.3801 10.6905C11.1399 10.9825 10.7848 11.2474 10.3148 11.4875C11.0261 11.7479 11.5672 12.1583 11.929 12.7242ZM4.22968 10.5203H7.19106C7.79979 10.5203 8.29242 10.4042 8.67119 10.1731C9.04995 9.94202 9.23934 9.53057 9.23934 8.94212C9.23934 8.29055 8.98908 7.8588 8.48744 7.65025C8.05569 7.50596 7.50444 7.43156 6.83484 7.43156H4.22855L4.22968 10.5203ZM9.52454 14.5752C9.52454 13.8481 9.22694 13.3453 8.63399 13.0759C8.30144 12.9214 7.83361 12.8437 7.2339 12.838H4.22855V16.5693H7.1888C7.79641 16.5693 8.26649 16.4893 8.6058 16.3236C9.21792 16.0181 9.52567 15.4375 9.52567 14.5752H9.52454ZM23.4105 12.2981C23.4781 12.7557 23.5097 13.4197 23.4973 14.2888H16.1958C16.2364 15.2966 16.5836 16.0012 17.2442 16.4048C17.6421 16.6573 18.1235 16.7813 18.6894 16.7813C19.2846 16.7813 19.7705 16.6302 20.1436 16.3202C20.3476 16.1568 20.5269 15.9257 20.6824 15.6326H23.3586C23.2887 16.2278 22.9663 16.832 22.388 17.4452C21.4907 18.4203 20.2326 18.9096 18.6161 18.9096C17.2814 18.9096 16.1045 18.497 15.0832 17.6752C14.0653 16.85 13.5546 15.5131 13.5546 13.6576C13.5546 11.9182 14.0134 10.5868 14.9344 9.6602C15.8588 8.73132 17.0514 8.26913 18.5214 8.26913C19.3939 8.26913 20.1785 8.4247 20.8797 8.73808C21.5786 9.05147 22.1558 9.54522 22.6112 10.2227C23.0227 10.8202 23.2876 11.5101 23.4116 12.2969L23.4105 12.2981ZM20.776 12.5585C20.7275 11.8618 20.4942 11.3342 20.0759 10.9735C19.66 10.6128 19.1403 10.4313 18.5214 10.4313C17.8473 10.4313 17.3265 10.6252 16.9579 11.0062C16.5859 11.3861 16.3536 11.9035 16.259 12.5585H20.776Z" fill="#FBC76A"/>
</svg>
