<svg width="18" height="18" viewBox="0 0 18 18" fill="none" xmlns="http://www.w3.org/2000/svg">
<path d="M16.2364 12.2748L13.6913 11.9842C13.392 11.949 13.0887 11.9822 12.8041 12.0811C12.5194 12.18 12.2609 12.3422 12.048 12.5553L10.2043 14.3991C7.35972 12.9524 5.04764 10.6403 3.60094 7.79573L5.45468 5.94199C5.88555 5.51112 6.09598 4.90991 6.02583 4.29868L5.73525 1.77358C5.67844 1.28477 5.44385 0.83392 5.07615 0.506872C4.70846 0.179823 4.23332 -0.000583433 3.74122 1.41755e-06H2.00773C0.87544 1.41755e-06 -0.0664606 0.941902 0.00368091 2.07419C0.534753 10.6315 7.37856 17.4652 15.9258 17.9963C17.0581 18.0665 18 17.1246 18 15.9923V14.2588C18.01 13.2467 17.2485 12.395 16.2364 12.2748Z" fill="#FBC76A"/>
</svg>
