<svg width="46" height="46" viewBox="0 0 46 46" fill="none" xmlns="http://www.w3.org/2000/svg">
<path fill-rule="evenodd" clip-rule="evenodd" d="M22.5 0C34.9267 0 45 10.0733 45 22.5C45 34.9267 34.9267 45 22.5 45C10.0733 45 0 34.9267 0 22.5C0 10.0733 10.0733 0 22.5 0ZM24.75 4.6395V6.75C24.7494 7.32348 24.5298 7.87507 24.1361 8.29208C23.7424 8.70909 23.2044 8.96003 22.6319 8.99364C22.0594 9.02725 21.4956 8.84098 21.0559 8.4729C20.6161 8.10483 20.3335 7.58272 20.2657 7.01325L20.25 6.75V4.6395C16.384 5.1277 12.7806 6.85652 9.98051 9.56652C7.18045 12.2765 5.33479 15.8215 4.7205 19.6695L4.6395 20.25H6.75C7.32348 20.2506 7.87507 20.4702 8.29208 20.8639C8.70909 21.2576 8.96003 21.7956 8.99364 22.3681C9.02725 22.9406 8.84098 23.5044 8.4729 23.9441C8.10483 24.3839 7.58272 24.6665 7.01325 24.7343L6.75 24.75H4.6395C5.18318 29.0503 7.26016 33.01 10.4889 35.9019C13.7177 38.7938 17.8815 40.4236 22.2155 40.492C26.5495 40.5604 30.7626 39.0628 34.081 36.2742C37.3995 33.4857 39.6004 29.5935 40.2795 25.3125L40.3605 24.75H38.25C37.6765 24.7494 37.1249 24.5298 36.7079 24.1361C36.2909 23.7424 36.04 23.2044 36.0064 22.6319C35.9728 22.0594 36.159 21.4956 36.5271 21.0559C36.8952 20.6161 37.4173 20.3335 37.9867 20.2657L38.25 20.25H40.3605C39.8701 16.3263 38.0976 12.6744 35.3183 9.86175L29.8642 20.5695L29.5155 21.231L28.818 22.6035C27.9855 24.2235 27.081 25.875 25.8412 27.1147C23.6542 29.2995 20.0182 29.565 17.7277 27.2723C15.435 24.9818 15.7005 21.3458 17.8853 19.1588C18.9473 18.0968 20.3108 17.28 21.7013 16.5442L23.769 15.4845L25.6793 14.4855L35.136 9.68175C32.3239 6.90287 28.6729 5.13036 24.75 4.6395ZM25.1145 19.8855L24.642 20.1375L24.156 20.3917C23.2515 20.862 22.3065 21.3502 21.519 21.9622L21.0667 22.3447L20.9025 22.5338C20.4682 23.1188 20.5988 23.7802 20.9093 24.0907C21.2198 24.4012 21.8812 24.5318 22.4662 24.0975L22.6598 23.931L23.0378 23.481C23.526 22.851 23.9378 22.1197 24.3225 21.3885L24.6083 20.844C24.777 20.5155 24.9457 20.1915 25.1145 19.8855Z" fill="#F9F9F9"/>
</svg>
