<svg width="24" height="24" viewBox="0 0 24 24" fill="none" xmlns="http://www.w3.org/2000/svg">
<path d="M12 0C9.62663 0 7.30655 0.703788 5.33316 2.02236C3.35977 3.34094 1.8217 5.21508 0.913451 7.4078C0.00519943 9.60051 -0.232441 12.0133 0.230582 14.3411C0.693605 16.6689 1.83649 18.807 3.51472 20.4853C5.19295 22.1635 7.33115 23.3064 9.65892 23.7694C11.9867 24.2324 14.3995 23.9948 16.5922 23.0866C18.7849 22.1783 20.6591 20.6402 21.9776 18.6668C23.2962 16.6934 24 14.3734 24 12C23.9965 8.81848 22.7311 5.76829 20.4814 3.51862C18.2317 1.26894 15.1815 0.00352914 12 0ZM13.3333 21.2367V15.1111H15.5556C15.9092 15.1111 16.2483 14.9706 16.4984 14.7206C16.7484 14.4705 16.8889 14.1314 16.8889 13.7778C16.8889 13.4242 16.7484 13.085 16.4984 12.835C16.2483 12.5849 15.9092 12.4444 15.5556 12.4444H13.3333V10.2222C13.3333 9.8686 13.4738 9.52946 13.7239 9.27941C13.9739 9.02936 14.313 8.88889 14.6667 8.88889H16.4444C16.7981 8.88889 17.1372 8.74841 17.3873 8.49836C17.6373 8.24831 17.7778 7.90918 17.7778 7.55555C17.7778 7.20193 17.6373 6.86279 17.3873 6.61275C17.1372 6.3627 16.7981 6.22222 16.4444 6.22222H14.6667C13.6058 6.22222 12.5884 6.64365 11.8382 7.39379C11.0881 8.14394 10.6667 9.16135 10.6667 10.2222V12.4444H8.44445C8.09083 12.4444 7.75169 12.5849 7.50164 12.835C7.25159 13.085 7.11111 13.4242 7.11111 13.7778C7.11111 14.1314 7.25159 14.4705 7.50164 14.7206C7.75169 14.9706 8.09083 15.1111 8.44445 15.1111H10.6667V21.2367C8.33122 20.8996 6.21013 19.6904 4.73028 17.8524C3.25042 16.0145 2.52165 13.6843 2.69063 11.3307C2.85962 8.97708 3.9138 6.77485 5.64104 5.16718C7.36828 3.5595 9.64035 2.66573 12 2.66573C14.3597 2.66573 16.6317 3.5595 18.359 5.16718C20.0862 6.77485 21.1404 8.97708 21.3094 11.3307C21.4784 13.6843 20.7496 16.0145 19.2697 17.8524C17.7899 19.6904 15.6688 20.8996 13.3333 21.2367Z" fill="#F9F9F9"/>
</svg>
