<svg width="22" height="18" viewBox="0 0 22 18" fill="none" xmlns="http://www.w3.org/2000/svg">
<path fill-rule="evenodd" clip-rule="evenodd" d="M3.00012 2C2.44784 2 2.00012 2.44771 2.00012 3V15C2.00012 15.5523 2.44784 16 3.00012 16H19.0001C19.5524 16 20.0001 15.5523 20.0001 15V3C20.0001 2.44771 19.5524 2 19.0001 2H3.00012ZM0.00012207 3C0.00012207 1.34315 1.34327 0 3.00012 0H19.0001C20.657 0 22.0001 1.34315 22.0001 3V15C22.0001 16.6569 20.657 18 19.0001 18H3.00012C1.34327 18 0.00012207 16.6569 0.00012207 15V3Z" fill="#FBC76A"/>
<path fill-rule="evenodd" clip-rule="evenodd" d="M0.156117 3.46368C0.452322 2.99754 1.07032 2.85979 1.53645 3.15599L10.5033 8.85397C10.6523 8.9468 10.8245 8.99602 11.0001 8.99602C11.1758 8.99602 11.3479 8.9468 11.497 8.85397C11.4977 8.85351 11.4985 8.85305 11.4992 8.85259L20.4638 3.15599C20.9299 2.85979 21.5479 2.99754 21.8441 3.46368C22.1403 3.92981 22.0026 4.54781 21.5365 4.84401L12.5665 10.544C12.5647 10.5452 12.5629 10.5463 12.5611 10.5474C12.0932 10.8406 11.5522 10.996 11.0001 10.996C10.448 10.996 9.90707 10.8406 9.4392 10.5474C9.4374 10.5463 9.4356 10.5452 9.4338 10.544L0.463799 4.84401C-0.00233451 4.54781 -0.140089 3.92981 0.156117 3.46368Z" fill="#FBC76A"/>
</svg>
