<svg width="24" height="24" viewBox="0 0 24 24" fill="none" xmlns="http://www.w3.org/2000/svg">
<path fill-rule="evenodd" clip-rule="evenodd" d="M12 0C18.6276 0 24 5.3724 24 12C24 18.6276 18.6276 24 12 24C5.3724 24 0 18.6276 0 12C0 5.3724 5.3724 0 12 0ZM13.9404 14.3796C10.8814 15.2805 8.20717 17.1698 6.336 19.752C7.97885 20.9558 9.96332 21.6033 12 21.6C13.246 21.6021 14.4804 21.3603 15.6336 20.8884C15.2561 18.6744 14.6897 16.4969 13.9404 14.3796ZM16.314 13.8972C16.9524 15.7488 17.466 17.6592 17.8428 19.6188C19.6034 18.2689 20.8423 16.3511 21.3492 14.1912C19.7008 13.8005 17.9967 13.701 16.314 13.8972ZM12.4212 10.6944C9.21021 11.8267 5.78744 12.2301 2.4012 11.8752L2.4 12C2.4 14.3124 3.2184 16.434 4.5804 18.0912C6.71197 15.2624 9.68174 13.1783 13.0668 12.1356C12.8613 11.6513 12.646 11.1712 12.4212 10.6956V10.6944ZM19.7856 6.3828C18.2315 7.74012 16.5005 8.8805 14.64 9.7728C14.9208 10.3728 15.1884 10.9788 15.4416 11.5932C17.4816 11.2812 19.5816 11.346 21.5976 11.7864C21.5575 9.84278 20.9254 7.95764 19.7856 6.3828ZM7.8876 3.324C6.63339 3.92008 5.52302 4.78052 4.63274 5.84624C3.74247 6.91196 3.09336 8.15773 2.73 9.498C5.62849 9.79074 8.55609 9.46349 11.3184 8.538C10.3135 6.71258 9.16638 4.96919 7.8876 3.324ZM12 2.4C11.424 2.4 10.86 2.4504 10.314 2.5476C11.5154 4.16178 12.5994 5.86015 13.5576 7.6296C15.2161 6.83982 16.7604 5.82991 18.1488 4.6272C16.4247 3.18517 14.2477 2.39662 12 2.4Z" fill="#F9F9F9"/>
</svg>
