<svg width="24" height="24" viewBox="0 0 24 24" fill="none" xmlns="http://www.w3.org/2000/svg">
<path d="M21.6231 11.1094L12.8931 2.37709C12.6514 2.13563 12.3238 2 11.9821 2C11.6405 2 11.3128 2.13563 11.0712 2.37709L9.25596 4.19096L11.556 6.491C12.7641 6.08296 13.9078 7.23967 13.4931 8.44103L15.7101 10.658C17.2382 10.1312 18.4414 12.042 17.2936 13.1889C16.111 14.3715 14.1592 13.0608 14.7936 11.5219L12.7243 9.45533V14.8952C13.8538 15.455 13.7181 16.7635 13.1297 17.3506C12.8422 17.6379 12.4524 17.7993 12.046 17.7993C11.6395 17.7993 11.2497 17.6379 10.9622 17.3506C10.1779 16.5648 10.468 15.2563 11.4645 14.8505V9.35935C10.5359 8.97943 10.3662 7.98701 10.6323 7.35039L8.36488 5.08026L2.37727 11.0688C2.13571 11.3104 2 11.638 2 11.9797C2 12.3214 2.13571 12.649 2.37727 12.8907L11.11 21.6229C11.3516 21.8644 11.6792 22 12.0207 22C12.3623 22 12.6899 21.8644 12.9315 21.6229L21.6231 12.9313C21.8647 12.6897 22.0004 12.362 22.0004 12.0203C22.0004 11.6787 21.8647 11.351 21.6231 11.1094Z" fill="#FBC76A"/>
</svg>
