<svg width="46" height="46" viewBox="0 0 46 46" fill="none" xmlns="http://www.w3.org/2000/svg">
<path d="M32.9613 25.9347C35.2568 25.9347 37.3372 26.8682 38.8449 28.3694C40.3519 29.8771 41.2796 31.9521 41.2796 34.253C41.2796 35.931 40.7797 37.4995 39.9249 38.8058L43.5256 42.7298L41.0422 45L37.569 41.1796C36.2507 42.0585 34.6642 42.5709 32.9613 42.5709C30.6666 42.5709 28.5854 41.6374 27.0784 40.1363C25.5707 38.6286 24.6431 36.5536 24.6431 34.2534C24.6431 31.9579 25.5773 29.8774 27.0784 28.3697C28.585 26.862 30.6607 25.9347 32.9613 25.9347ZM10.2452 20.9037C9.71605 20.9037 9.27513 20.4246 9.27513 19.8453C9.27513 19.2531 9.70323 18.7869 10.2452 18.7869H18.536C19.0652 18.7869 19.5061 19.2659 19.5061 19.8453C19.5061 20.4375 19.0777 20.9037 18.536 20.9037H10.2452ZM34.0841 6.43883H37.5617C38.2425 6.43883 38.8728 6.71605 39.3133 7.16943C39.7667 7.62317 40.0443 8.24061 40.0443 8.92104V22.4824C39.97 23.2592 38.0631 23.2691 37.9019 22.4824V8.92068C37.9019 8.81997 37.8639 8.73171 37.8012 8.66872C37.7382 8.60573 37.6503 8.56801 37.5493 8.56801H34.0717V22.4824C33.8864 23.187 32.2999 23.2929 31.9425 22.4824V2.48222C31.9425 2.38151 31.9044 2.29325 31.8418 2.23026C31.7788 2.16727 31.6902 2.12955 31.5895 2.12955H5.46977C5.36906 2.12955 5.28043 2.16727 5.21781 2.23026C5.15445 2.29325 5.11673 2.38114 5.11673 2.48222V31.992C5.11673 32.0927 5.15445 32.1809 5.21744 32.2439C5.28043 32.3069 5.36869 32.3446 5.4694 32.3446H21.0446C22.1173 32.4549 22.1495 34.3094 21.0446 34.4738H11.0765V38.4301C11.0765 38.5308 11.1146 38.6198 11.1773 38.6824C11.2399 38.745 11.3285 38.7831 11.4292 38.7831H21.0446C21.8217 38.8703 22.0718 40.6373 21.0446 40.9123H11.442C10.7616 40.9123 10.1317 40.6347 9.69078 40.1813C9.23704 39.7279 8.95981 39.1105 8.95981 38.4297V34.4738H5.48222C4.80179 34.4738 4.17189 34.1962 3.73097 33.7429C3.27723 33.2891 3 32.672 3 31.9916V2.48222C3 1.80179 3.27723 1.17189 3.73097 0.730603C4.18435 0.277226 4.80179 0 5.48222 0H31.6023C32.2823 0 32.9126 0.277226 33.3539 0.730603C33.8073 1.18435 34.0841 1.80179 34.0841 2.48222V6.43883ZM10.2324 9.53812C9.70323 9.53812 9.26231 9.05911 9.26231 8.47939C9.26231 7.88721 9.69078 7.42102 10.2324 7.42102H26.814C27.3432 7.42102 27.7837 7.90003 27.7837 8.47939C27.7837 9.07156 27.356 9.53812 26.814 9.53812H10.2324ZM10.2324 15.2211C9.70323 15.2211 9.26231 14.7421 9.26231 14.1627C9.26231 13.5705 9.69078 13.1043 10.2324 13.1043H26.814C27.3432 13.1043 27.7837 13.583 27.7837 14.1627C27.7837 14.7549 27.356 15.2211 26.814 15.2211H10.2324ZM37.3845 29.8302C36.2529 28.6986 34.6873 27.9962 32.9613 27.9962C31.2361 27.9962 29.6705 28.6986 28.5389 29.8302C27.4073 30.9618 26.7041 32.5274 26.7041 34.2534C26.7041 35.9786 27.4073 37.5442 28.5389 38.6758C29.6705 39.8074 31.2361 40.5105 32.9613 40.5105C34.6873 40.5105 36.2529 39.8074 37.3845 38.6758C38.5161 37.5442 39.2185 35.9786 39.2185 34.2534C39.2181 32.5274 38.5157 30.9618 37.3845 29.8302Z" fill="#F9F9F9"/>
</svg>
