<svg width="24" height="24" viewBox="0 0 24 24" fill="none" xmlns="http://www.w3.org/2000/svg">
<path d="M13.7387 10.7527C14.1227 10.8656 14.4883 11.0341 14.8241 11.2507C15.1681 11.4766 15.4556 11.7806 15.662 12.1359C15.8766 12.5302 15.9855 12.9728 15.9773 13.4215C15.9953 14.0002 15.8228 14.5688 15.4864 15.0399C15.1328 15.5236 14.6472 15.8951 14.0878 16.1099C13.4857 16.3501 12.8412 16.4657 12.1932 16.4498C11.431 16.4712 10.6749 16.3077 9.98952 15.9733C9.5391 15.7363 9.15237 15.3943 8.86201 14.9762C8.57145 14.5742 8.40865 14.094 8.39478 13.5982C8.39478 13.3753 8.48333 13.1615 8.64095 13.0038C8.79858 12.8462 9.01236 12.7577 9.23528 12.7577C9.45819 12.7577 9.67198 12.8462 9.8296 13.0038C9.98723 13.1615 10.0758 13.3753 10.0758 13.5982C10.0922 13.7522 10.1507 13.898 10.2452 14.0212C10.3787 14.2133 10.5564 14.3704 10.7628 14.4803C11.2095 14.6897 11.7003 14.7883 12.1932 14.7698C12.6198 14.7835 13.0448 14.7112 13.4429 14.5573C13.7099 14.4618 13.944 14.2903 14.1165 14.0664C14.2452 13.8876 14.3089 13.6703 14.2973 13.4503C14.3058 13.2809 14.2716 13.1121 14.1977 12.9595C14.1213 12.8342 14.0169 12.7284 13.8927 12.6504C13.6936 12.5246 13.4779 12.4271 13.2519 12.3608C13.0671 12.3053 12.8668 12.2509 12.6584 12.1965L12.643 12.1944C12.6281 12.1899 12.613 12.1862 12.5978 12.1831C12.4591 12.1471 12.3198 12.1135 12.1799 12.0825C11.8092 12.0024 11.5514 11.9387 11.3902 11.8894L11.3799 11.8833C11.3773 11.8816 11.3746 11.8802 11.3717 11.8792C10.9989 11.7888 10.6323 11.6738 10.2729 11.5362C9.79907 11.3459 9.38288 11.0355 9.06533 10.6356C8.73596 10.2037 8.56389 9.67223 8.57756 9.12919C8.57756 8.58495 8.75624 8.05405 9.08587 7.61968C9.42884 7.18223 9.88786 6.84952 10.4105 6.66057C10.9881 6.45244 11.5989 6.35219 12.2127 6.36483C12.6953 6.3597 13.177 6.42644 13.6401 6.56302C14.0406 6.68008 14.4164 6.87108 14.7481 7.12575C15.0356 7.34345 15.2738 7.6166 15.4515 7.93082C15.557 8.12705 15.5803 8.35716 15.5162 8.57054C15.452 8.78391 15.3058 8.96307 15.1095 9.06861C15.0124 9.12086 14.9059 9.15347 14.7961 9.16456C14.6864 9.17566 14.5755 9.16503 14.4698 9.13327C14.2565 9.06915 14.0773 8.92288 13.9718 8.72666C13.9003 8.61397 13.8075 8.51631 13.6986 8.43913C13.5304 8.31629 13.3415 8.22449 13.141 8.16803C12.839 8.0813 12.5258 8.03978 12.2117 8.04481C11.8059 8.03299 11.4013 8.09457 11.0174 8.22656C10.7884 8.30461 10.5861 8.44221 10.429 8.62705C10.3171 8.7701 10.2564 8.94654 10.2565 9.12817C10.2428 9.29765 10.2906 9.4664 10.391 9.60361C10.5286 9.77099 10.7063 9.90141 10.9086 9.97945C11.3006 10.13 11.7041 10.2488 12.1152 10.3347C12.4602 10.4107 12.7385 10.4785 12.9747 10.5432C13.2427 10.61 13.5035 10.6808 13.7387 10.7527Z" fill="#F9F9F9"/>
<path fill-rule="evenodd" clip-rule="evenodd" d="M8.39248 2.00103C7.4732 2.0008 6.56914 2.23564 5.76619 2.68323C4.96324 3.13082 4.28809 3.7763 3.80487 4.55833C3.32166 5.34036 3.04645 6.23296 3.00538 7.15132C2.96432 8.06968 3.15877 8.98328 3.57025 9.80532C3.29385 11.2605 3.37733 12.7612 3.81343 14.1768C4.24953 15.5924 5.02502 16.8799 6.0724 17.9273C7.11978 18.9746 8.4073 19.7501 9.82287 20.1862C11.2384 20.6223 12.7391 20.7058 14.1943 20.4294C15.2066 20.9363 16.3527 21.1116 17.4702 20.9306C18.5876 20.7496 19.6198 20.2214 20.4203 19.421C21.2208 18.6205 21.7489 17.5883 21.9299 16.4709C22.1109 15.3534 21.9356 14.2073 21.4287 13.195C21.7053 11.7399 21.6219 10.2392 21.186 8.82354C20.75 7.40793 19.9746 6.12034 18.9273 5.07286C17.8801 4.02538 16.5926 3.24976 15.1771 2.81352C13.7616 2.37729 12.2609 2.29366 10.8056 2.56992C10.0567 2.19435 9.2303 2.00021 8.39248 2.00103ZM4.54168 7.39215C4.54161 6.71757 4.71876 6.0548 5.05538 5.47021C5.392 4.88562 5.87628 4.39971 6.45974 4.06113C7.0432 3.72256 7.70537 3.54319 8.37995 3.541C9.05453 3.5388 9.71785 3.71385 10.3035 4.04863C10.4702 4.14401 10.6665 4.17367 10.8539 4.1318C12.0949 3.85403 13.3859 3.89431 14.6072 4.24892C15.8284 4.60352 16.9403 5.26096 17.8395 6.16018C18.7387 7.05939 19.3961 8.17124 19.7507 9.39249C20.1054 10.6137 20.1456 11.9048 19.8679 13.1458C19.826 13.3332 19.8557 13.5295 19.951 13.6962C20.3713 14.4298 20.5385 15.2814 20.4268 16.1194C20.315 16.9575 19.9305 17.7355 19.3327 18.3334C18.7348 18.9312 17.9568 19.3157 17.1187 19.4275C16.2807 19.5392 15.4291 19.372 14.6955 18.9517C14.5292 18.8563 14.3333 18.8262 14.1461 18.8675C12.9051 19.1453 11.6141 19.105 10.3928 18.7504C9.17157 18.3958 8.05972 17.7384 7.1605 16.8392C6.26129 15.9399 5.60385 14.8281 5.24925 13.6068C4.89464 12.3856 4.85435 11.0946 5.13213 9.85358C5.174 9.66616 5.14434 9.46985 5.04896 9.30317C4.71553 8.72154 4.54061 8.06257 4.54168 7.39215Z" fill="#F9F9F9"/>
</svg>
