<svg width="46" height="46" viewBox="0 0 46 46" fill="none" xmlns="http://www.w3.org/2000/svg">
<path d="M11.2125 23.7125H34.7875V28.14H37.0875V21.4125H24.15V16.8125H21.85V21.4125H8.91248V28.14H11.2125V23.7125Z" fill="#F9F9F9"/>
<path d="M17.25 29.75H2.875C2.1125 29.75 1.38123 30.0529 0.842068 30.5921C0.302901 31.1312 0 31.8625 0 32.625V41.25C0 42.0125 0.302901 42.7438 0.842068 43.2829C1.38123 43.8221 2.1125 44.125 2.875 44.125H17.25C18.0125 44.125 18.7438 43.8221 19.2829 43.2829C19.8221 42.7438 20.125 42.0125 20.125 41.25V32.625C20.125 31.8625 19.8221 31.1312 19.2829 30.5921C18.7438 30.0529 18.0125 29.75 17.25 29.75ZM2.875 41.25V32.625H17.25V41.25H2.875Z" fill="#F9F9F9"/>
<path d="M43.125 29.75H28.75C27.9875 29.75 27.2562 30.0529 26.7171 30.5921C26.1779 31.1312 25.875 31.8625 25.875 32.625V41.25C25.875 42.0125 26.1779 42.7438 26.7171 43.2829C27.2562 43.8221 27.9875 44.125 28.75 44.125H43.125C43.8875 44.125 44.6188 43.8221 45.1579 43.2829C45.6971 42.7438 46 42.0125 46 41.25V32.625C46 31.8625 45.6971 31.1312 45.1579 30.5921C44.6188 30.0529 43.8875 29.75 43.125 29.75ZM28.75 41.25V32.625H43.125V41.25H28.75Z" fill="#F9F9F9"/>
<path d="M15.8125 15.375H30.1875C30.95 15.375 31.6813 15.0721 32.2204 14.5329C32.7596 13.9938 33.0625 13.2625 33.0625 12.5V3.875C33.0625 3.1125 32.7596 2.38123 32.2204 1.84207C31.6813 1.3029 30.95 1 30.1875 1H15.8125C15.05 1 14.3187 1.3029 13.7796 1.84207C13.2404 2.38123 12.9375 3.1125 12.9375 3.875V12.5C12.9375 13.2625 13.2404 13.9938 13.7796 14.5329C14.3187 15.0721 15.05 15.375 15.8125 15.375ZM15.8125 3.875H30.1875V12.5H15.8125V3.875Z" fill="#F9F9F9"/>
</svg>
