<svg width="60" height="60" viewBox="0 0 60 60" fill="none" xmlns="http://www.w3.org/2000/svg">
<path fill-rule="evenodd" clip-rule="evenodd" d="M24.503 23.0971C27.8021 25.4615 33.0899 22.923 35.1702 27.0378C35.7201 28.1283 35.8392 29.6221 35.3443 30.8089C35.1427 31.2854 34.8495 31.7116 34.4462 32.0369C34.2675 32.1789 34.0705 32.3072 33.8506 32.4172C31.1379 33.7644 28.3061 31.8811 26.8078 29.6038C25.4286 27.5051 24.8283 24.8887 24.503 23.0971ZM47.8261 7H5.32664C3.49836 7 2 8.49836 2 10.3266V45.9666C2 47.7949 3.49836 49.2933 5.32664 49.2933H38.4831L35.6101 46.8464H5.26249C5.00589 46.8464 4.78137 46.7502 4.61183 46.5761C4.44229 46.4065 4.34148 46.1774 4.34148 45.9254V16.3155H4.32773H48.6784V29.9108L51.1528 31.9178V10.3266C51.1528 8.49836 49.6544 7 47.8261 7ZM8.49291 10.739C7.58565 10.739 6.84792 11.4768 6.84792 12.384C6.84792 13.2913 7.58565 14.0244 8.49291 14.0244C9.40018 14.0244 10.1379 13.2867 10.1379 12.384C10.1379 11.4768 9.40018 10.739 8.49291 10.739ZM19.6321 10.739C18.7249 10.739 17.9871 11.4768 17.9871 12.384C17.9871 13.2913 18.7203 14.0244 19.6321 14.0244C20.5394 14.0244 21.2771 13.2867 21.2771 12.384C21.2771 11.4768 20.5394 10.739 19.6321 10.739ZM14.0648 10.739C13.1575 10.739 12.4198 11.4768 12.4198 12.384C12.4198 13.2913 13.1575 14.0244 14.0648 14.0244C14.9721 14.0244 15.7098 13.2867 15.7098 12.384C15.7052 11.4768 14.9721 10.739 14.0648 10.739ZM41.237 41.1554C43.0744 39.6891 44.4995 37.9983 45.4709 36.06L57.2928 48.5281C58.1864 49.3712 58.6904 50.0906 57.9435 51.3827C57.5724 51.7631 57.1783 51.9693 56.7613 51.9967C56.3489 52.0242 55.9136 51.8776 55.46 51.5477L41.237 41.1554ZM35.0007 33.9202C35.798 33.494 36.8885 32.4401 37.1497 31.29L44.5499 35.3498C43.4822 37.4759 42.1213 39.295 40.2564 40.5872C38.309 37.9754 37.2184 36.3991 35.0007 33.9202Z" fill="#F9F9F9"/>
</svg>
