<svg width="24" height="24" viewBox="0 0 24 24" fill="none" xmlns="http://www.w3.org/2000/svg">
<mask id="mask0_963_709" style="mask-type:luminance" maskUnits="userSpaceOnUse" x="2" y="2" width="20" height="20">
<path d="M2 2H22V22H2V2Z" fill="white"/>
</mask>
<g mask="url(#mask0_963_709)">
<path fill-rule="evenodd" clip-rule="evenodd" d="M16.5125 13.985C16.2642 13.8609 15.0467 13.2625 14.82 13.1792C14.5933 13.0967 14.4283 13.0559 14.2625 13.3042C14.0975 13.5509 13.6233 14.1092 13.4792 14.2742C13.3342 14.44 13.19 14.46 12.9425 14.3367C12.695 14.2117 11.8967 13.9509 10.9508 13.1075C10.215 12.4509 9.7175 11.64 9.57333 11.3917C9.42917 11.1442 9.5575 11.01 9.68167 10.8867C9.79333 10.7759 9.92917 10.5975 10.0533 10.4534C10.1775 10.3084 10.2183 10.205 10.3008 10.0392C10.3842 9.8742 10.3425 9.73003 10.28 9.60587C10.2183 9.4817 9.72333 8.26253 9.51667 7.7667C9.31583 7.2842 9.11167 7.35003 8.96 7.3417C8.815 7.33503 8.65 7.33337 8.485 7.33337C8.32 7.33337 8.05167 7.39503 7.825 7.64337C7.5975 7.89087 6.95833 8.49003 6.95833 9.7092C6.95833 10.9275 7.845 12.105 7.96917 12.2709C8.09333 12.4359 9.715 14.9375 12.1992 16.01C12.7908 16.265 13.2517 16.4175 13.6108 16.5309C14.2042 16.72 14.7442 16.6934 15.1708 16.6292C15.6458 16.5584 16.6358 16.03 16.8425 15.4517C17.0483 14.8734 17.0483 14.3775 16.9867 14.2742C16.925 14.1709 16.76 14.1092 16.5117 13.985H16.5125ZM11.9942 20.1542H11.9908C10.5154 20.1545 9.06698 19.7578 7.7975 19.0059L7.4975 18.8275L4.37917 19.6459L5.21167 16.6059L5.01583 16.2942C4.19095 14.9812 3.75441 13.4615 3.75667 11.9109C3.75833 7.3692 7.45333 3.6742 11.9975 3.6742C14.1975 3.6742 16.2658 4.53253 17.8208 6.0892C18.5878 6.85302 19.1957 7.76134 19.6094 8.76162C20.0231 9.76189 20.2343 10.8343 20.2308 11.9167C20.2292 16.4584 16.5342 20.1542 11.9942 20.1542ZM19.0042 4.9067C18.086 3.98247 16.9935 3.24965 15.7901 2.7507C14.5866 2.25175 13.2961 1.9966 11.9933 2.00003C6.53167 2.00003 2.085 6.44587 2.08333 11.91C2.0808 13.649 2.53698 15.3579 3.40583 16.8642L2 22L7.25333 20.6217C8.70656 21.4135 10.3351 21.8283 11.99 21.8284H11.9942C17.4558 21.8284 21.9025 17.3825 21.9042 11.9175C21.9082 10.6153 21.654 9.32512 21.1562 8.12173C20.6584 6.91834 19.927 5.82559 19.0042 4.9067Z" fill="#F9F9F9"/>
</g>
</svg>
